<svg xmlns="http://www.w3.org/2000/svg" viewBox="0 0 64 64" role="img" aria-label="Rocket">
  <rect width="64" height="64" rx="32" fill="#eaf4ff"/>
  <path d="M38.8 12.8c-7.8 1.4-13.2 6.2-16.8 14.4l-7 1.8-3.6 8.6 9.3-1.5 7.2 7.2-1.5 9.3 8.6-3.6 1.8-7c8.2-3.6 13-9 14.4-16.8.6-3.5.2-7.2-1.1-10.7-3.5-1.3-7.8-2.3-11.3-1.7Z" fill="#0b66e8"/>
  <path d="M37.5 27.5a5 5 0 1 0 0-10 5 5 0 0 0 0 10Z" fill="#fff"/>
  <path d="M17 43c-2.8 1.1-4.7 3.3-5.7 6.7 3.4-1 5.6-2.9 6.7-5.7l-1-1Z" fill="#10b981"/>
</svg>
