<svg xmlns="http://www.w3.org/2000/svg" width="1152" height="896" viewBox="0 0 1152 896" role="img" aria-labelledby="title desc">
  <title id="title">MiniLogistics logo</title>
  <desc id="desc">An isometric blue logistics cube surrounding a white parcel.</desc>
  <defs>
    <linearGradient id="topLeft" x1="278" y1="117" x2="621" y2="467" gradientUnits="userSpaceOnUse">
      <stop offset="0" stop-color="#2c70de"/>
      <stop offset="0.58" stop-color="#2b69cf"/>
      <stop offset="1" stop-color="#1d4da9"/>
    </linearGradient>
    <linearGradient id="topRight" x1="648" y1="76" x2="904" y2="477" gradientUnits="userSpaceOnUse">
      <stop offset="0" stop-color="#3d86f5"/>
      <stop offset="0.56" stop-color="#2f75e6"/>
      <stop offset="1" stop-color="#1d54b7"/>
    </linearGradient>
    <linearGradient id="leftWall" x1="199" y1="341" x2="594" y2="756" gradientUnits="userSpaceOnUse">
      <stop offset="0" stop-color="#2d70dd"/>
      <stop offset="0.55" stop-color="#2b6bd3"/>
      <stop offset="1" stop-color="#2460c5"/>
    </linearGradient>
    <linearGradient id="rightWall" x1="594" y1="308" x2="963" y2="738" gradientUnits="userSpaceOnUse">
      <stop offset="0" stop-color="#245dbd"/>
      <stop offset="0.52" stop-color="#1f56b0"/>
      <stop offset="1" stop-color="#173f8e"/>
    </linearGradient>
    <linearGradient id="rimLight" x1="254" y1="258" x2="904" y2="258" gradientUnits="userSpaceOnUse">
      <stop offset="0" stop-color="#8bbdf9"/>
      <stop offset="0.18" stop-color="#4d93ef"/>
      <stop offset="0.5" stop-color="#2c75e6"/>
      <stop offset="0.82" stop-color="#4f91ed"/>
      <stop offset="1" stop-color="#8ab8f5"/>
    </linearGradient>
    <linearGradient id="innerTop" x1="456" y1="281" x2="713" y2="412" gradientUnits="userSpaceOnUse">
      <stop offset="0" stop-color="#ffffff"/>
      <stop offset="1" stop-color="#f1f4f8"/>
    </linearGradient>
    <linearGradient id="innerLeft" x1="416" y1="376" x2="594" y2="669" gradientUnits="userSpaceOnUse">
      <stop offset="0" stop-color="#ffffff"/>
      <stop offset="1" stop-color="#edf1f6"/>
    </linearGradient>
    <linearGradient id="innerRight" x1="619" y1="388" x2="824" y2="650" gradientUnits="userSpaceOnUse">
      <stop offset="0" stop-color="#f9fbfd"/>
      <stop offset="1" stop-color="#e8edf4"/>
    </linearGradient>
    <linearGradient id="sideHighlightLeft" x1="228" y1="591" x2="443" y2="655" gradientUnits="userSpaceOnUse">
      <stop offset="0" stop-color="#ffffff" stop-opacity="0.85"/>
      <stop offset="0.72" stop-color="#7db2f1" stop-opacity="0.56"/>
      <stop offset="1" stop-color="#2761c6" stop-opacity="0"/>
    </linearGradient>
    <linearGradient id="sideHighlightRight" x1="720" y1="574" x2="925" y2="688" gradientUnits="userSpaceOnUse">
      <stop offset="0" stop-color="#ffffff" stop-opacity="0.78"/>
      <stop offset="0.7" stop-color="#76aaf0" stop-opacity="0.48"/>
      <stop offset="1" stop-color="#194492" stop-opacity="0"/>
    </linearGradient>
    <filter id="softShadow" x="-10%" y="-10%" width="120%" height="120%">
      <feDropShadow dx="0" dy="14" stdDeviation="16" flood-color="#0a2b66" flood-opacity="0.18"/>
    </filter>
  </defs>

  <g filter="url(#softShadow)">
    <path fill="url(#leftWall)" d="M576 445 252 258c-17-10-38 2-38 22v380c0 14 8 27 20 34l320 185c10 6 22 6 22-12V445Z"/>
    <path fill="url(#rightWall)" d="M576 445 900 258c17-10 38 2 38 22v380c0 14-8 27-20 34L598 879c-10 6-22 6-22-12V445Z"/>
    <path fill="url(#topLeft)" d="M576 45 252 232c-25 14-25 50 0 65l324 187V45Z"/>
    <path fill="url(#topRight)" d="M576 45 900 232c25 14 25 50 0 65L576 484V45Z"/>
  </g>

  <path fill="url(#rimLight)" d="M252 232 576 419l324-187c24 18 21 46 0 58L596 466c-12 7-28 7-40 0L252 290c-21-12-24-40 0-58Z" opacity="0.92"/>
  <path fill="#1c54b3" d="M556 456c12 7 28 7 40 0v408c0 16-8 26-20 30-12-4-20-14-20-30V456Z" opacity="0.95"/>
  <path fill="url(#sideHighlightLeft)" d="M214 641 405 531l42 25-213 123c-12-8-19-21-20-38Z"/>
  <path fill="url(#sideHighlightRight)" d="M747 557 938 668c-2 12-9 22-20 29L704 574l43-17Z"/>

  <g>
    <path fill="url(#innerTop)" d="M576 228 732 318 576 408 420 318 576 228Z"/>
    <path fill="url(#innerLeft)" d="M420 366 553 443c14 8 23 23 23 39v221L420 613V366Z"/>
    <path fill="url(#innerRight)" d="M732 366 599 443c-14 8-23 23-23 39v221l156-90V366Z"/>
    <path fill="#dfe7f1" d="M576 408 420 318v48l156 90 156-90v-48L576 408Z" opacity="0.42"/>
  </g>
</svg>
