<svg width="180" height="180" viewBox="0 0 180 180" fill="none" xmlns="http://www.w3.org/2000/svg">
<path d="M122.5 110C122.5 108.619 123.619 107.5 125 107.5H135C136.381 107.5 137.5 108.619 137.5 110V124.23C137.5 125.628 135.942 126.462 134.779 125.686L130 122.5L125.221 125.686C124.058 126.462 122.5 125.628 122.5 124.23V110Z" fill="#EE4D2D"/>
<path d="M114.368 107.5C116.093 107.5 117.493 108.899 117.493 110.625C117.493 112.351 116.093 113.75 114.368 113.75H110C109.31 113.75 108.75 114.31 108.75 115V145C108.75 145.69 109.31 146.25 110 146.25H150C150.69 146.25 151.25 145.69 151.25 145V115C151.25 114.31 150.69 113.75 150 113.75H145.618C143.892 113.75 142.493 112.351 142.493 110.625C142.493 108.899 143.892 107.5 145.618 107.5H150L150.386 107.51C154.348 107.711 157.5 110.987 157.5 115V145L157.49 145.386C157.296 149.221 154.221 152.296 150.386 152.49L150 152.5H110L109.614 152.49C105.779 152.296 102.704 149.221 102.51 145.386L102.5 145V115C102.5 110.987 105.651 107.711 109.614 107.51L110 107.5H114.368ZM132.961 28.75L133.486 28.7598C138.886 28.985 143.56 32.667 145.017 37.9126L155.149 74.3872C158.376 86.0047 149.638 97.4995 137.58 97.5L136.714 97.4805C130.571 97.1916 125.166 93.8472 122.078 88.8647C118.664 94.0368 112.804 97.4997 106.057 97.5L105.071 97.4756C98.7608 97.1558 93.2572 93.785 89.9999 88.811C86.5737 94.0416 80.6646 97.4997 73.9452 97.5L72.8807 97.4707C66.5163 97.1246 61.0416 93.69 57.8221 88.7061C54.471 94.022 48.5532 97.4999 41.8944 97.5L40.7738 97.4683C40.0874 97.4284 39.412 97.3518 38.7499 97.2412V137.5C38.7499 140.952 41.5483 143.75 44.9999 143.75H89.3749C91.1008 143.75 92.4999 145.149 92.4999 146.875C92.4999 148.601 91.1008 150 89.3749 150H44.9999L44.3578 149.983C37.7528 149.648 32.4999 144.188 32.4999 137.5V94.9902C25.9756 91.2197 22.0159 83.6779 23.3104 75.6958L23.5228 74.5972L31.5331 38.5474C32.7657 33.0015 37.5697 29.0061 43.2006 28.7622L43.7474 28.75H132.961ZM125.676 80.5908C126.35 86.6557 131.478 91.2449 137.58 91.2451C145.253 91.2446 150.879 84.1579 149.297 76.7773L149.121 76.062L138.989 39.5874C138.237 36.88 135.771 35.0053 132.961 35.0049H120.613L125.676 80.5908ZM43.7474 35.0049C40.9987 35.0049 38.5946 36.7955 37.7806 39.3774L37.639 39.9048L29.6288 75.9546C27.8855 83.801 33.8565 91.2451 41.8944 91.2451C48.2964 91.2449 53.6752 86.4288 54.3822 80.0659L59.3895 35.0049H43.7474ZM61.0961 76.8896C60.2453 84.5468 66.241 91.2448 73.9452 91.2451C81.0838 91.2446 86.8697 85.4565 86.87 78.3179V35.0049H65.7518L61.0961 76.8896ZM93.1298 78.3179C93.1302 85.4566 98.9183 91.2447 106.057 91.2451C113.52 91.2446 119.379 84.9591 118.965 77.605L118.906 76.8896L114.25 35.0049H93.1298V78.3179Z" fill="#3A4B64"/>
</svg>
