<svg width="180" height="180" viewBox="0 0 180 180" fill="none" xmlns="http://www.w3.org/2000/svg">
<path d="M127.5 90.0024C148.211 90.0024 165 106.792 165 127.502C165 148.213 148.211 165.002 127.5 165.002C106.789 165.002 90 148.213 90 127.502C90 106.792 106.789 90.0024 127.5 90.0024ZM127.5 96.2524C110.241 96.2524 96.25 110.244 96.25 127.502C96.25 144.761 110.241 158.752 127.5 158.752C144.759 158.752 158.75 144.761 158.75 127.502C158.75 110.244 144.759 96.2524 127.5 96.2524ZM125 22.5C131.904 22.5 137.5 28.0964 137.5 35V79.519C137.5 81.2449 136.098 82.6416 134.373 82.6416C132.756 82.6404 131.427 81.414 131.267 79.8389L131.25 79.519V35C131.25 31.5482 128.452 28.75 125 28.75H68.125V50C68.1249 57.2487 62.2487 63.125 55 63.125H33.75V145C33.75 148.452 36.5482 151.25 40 151.25H79.375C81.1009 151.25 82.5 152.649 82.5 154.375C82.5 156.101 81.1009 157.5 79.375 157.5H40C33.0964 157.5 27.5 151.904 27.5 145V57.4146L61.875 22.5H125ZM76.25 117.5C77.9759 117.5 79.375 118.899 79.375 120.625C79.375 122.243 78.1454 123.573 76.5698 123.733L76.25 123.75H53.75C52.0241 123.75 50.625 122.351 50.625 120.625C50.625 118.899 52.0241 117.5 53.75 117.5H76.25ZM86.25 95C87.9759 95 89.375 96.3991 89.375 98.125C89.375 99.7429 88.1454 101.073 86.5698 101.233L86.25 101.25H53.75C52.0241 101.25 50.625 99.8509 50.625 98.125C50.625 96.3991 52.0241 95 53.75 95H86.25ZM111.25 72.5C112.976 72.5 114.375 73.8991 114.375 75.625C114.375 77.3509 112.976 78.75 111.25 78.75H53.75C52.0241 78.75 50.625 77.3509 50.625 75.625C50.625 73.8991 52.0241 72.5 53.75 72.5H111.25ZM36.7993 56.875H55C58.7969 56.875 61.8749 53.7969 61.875 50V31.4062L36.7993 56.875Z" fill="#3A4B64"/>
<path d="M139.355 117.262C140.82 115.798 143.193 115.798 144.658 117.262C146.122 118.727 146.122 121.101 144.658 122.565L127.053 140.168C127.029 140.193 127.009 140.221 126.984 140.246C125.52 141.71 123.144 141.71 121.679 140.246L112.841 131.408C111.377 129.943 111.377 127.57 112.841 126.105C114.306 124.641 116.68 124.641 118.144 126.105L124.328 132.287L139.355 117.262Z" fill="#EE4D2D"/>
</svg>
