<svg width="180" height="180" viewBox="0 0 180 180" fill="none" xmlns="http://www.w3.org/2000/svg">
<path d="M88.7512 67.3901L97.5012 63.02L106.251 67.3901V38.75H88.7512V67.3901ZM112.501 72.6489L112.474 73.0566C112.227 74.9164 110.313 76.1 108.539 75.4907L108.16 75.332L97.5012 70.0073L86.842 75.332L86.4636 75.4907C84.6893 76.1 82.7754 74.9164 82.5281 73.0566L82.5012 72.6489V37.5C82.5012 34.9109 84.4693 32.7825 86.991 32.5269L87.5012 32.5H107.501L108.011 32.5269C110.533 32.7825 112.501 34.9109 112.501 37.5V72.6489Z" fill="#EE4D2D"/>
<path d="M37.5 85C40.5256 85 43.1258 86.7948 44.3115 89.375H66.8799C71.6324 89.375 76.3357 90.4963 80.5859 92.6733L90.6665 97.8296L90.6714 97.832L91.1987 98.0664C91.7367 98.2663 92.3059 98.3691 92.8906 98.3691H109.058C115.21 98.3691 120.199 103.32 120.261 109.458L140.466 101.121H140.469L141.519 100.723C146.816 98.8946 152.685 99.4716 157.549 102.361H157.551L161.514 104.719L161.958 105.005C166.392 108.079 165.911 114.898 160.957 117.28L160.95 117.283L106.221 143.43C99.4165 146.689 91.5931 147.164 84.4385 144.751V144.749L44.0332 131.172C42.7474 133.455 40.3068 135 37.5 135H22.5C18.4872 135 15.2105 131.849 15.0098 127.886L15 127.5V92.5C15 88.3579 18.3579 85 22.5 85H37.5ZM45 124.905L86.4331 138.828H86.4355L87.4951 139.158C92.8143 140.667 98.5238 140.189 103.525 137.793L103.528 137.791L158.247 111.648L158.459 111.506C158.886 111.124 158.844 110.401 158.32 110.09H158.318L154.355 107.732V107.729C150.863 105.656 146.596 105.351 142.849 106.895L142.852 106.897L116.846 117.632C114.829 119.58 112.084 120.781 109.058 120.781H84.9023C83.1766 120.781 81.7776 119.382 81.7773 117.656C81.7773 115.93 83.1765 114.531 84.9023 114.531H109.058C110.439 114.531 111.685 113.965 112.583 113.057C112.667 112.95 112.76 112.849 112.859 112.754C113.58 111.893 114.016 110.786 114.016 109.575C114.016 106.837 111.799 104.619 109.058 104.619H92.8906C91.1251 104.619 89.3953 104.202 87.8198 103.394V103.396L77.7393 98.2373H77.7368C74.3759 96.5157 70.6504 95.625 66.8799 95.625H45V124.905ZM22.5 91.25C21.8096 91.25 21.25 91.8096 21.25 92.5V127.5C21.25 128.19 21.8096 128.75 22.5 128.75H37.5C38.1904 128.75 38.75 128.19 38.75 127.5V92.5C38.75 91.8096 38.1904 91.25 37.5 91.25H22.5ZM138.145 37.5146C144.535 37.8392 149.661 42.9647 149.985 49.3555L150.002 50V84.375C150.002 86.1005 148.603 87.4993 146.877 87.5C145.152 87.5 143.752 86.1009 143.752 84.375V50C143.752 46.549 140.953 43.7513 137.502 43.75H125.625C123.9 43.7493 122.502 42.3505 122.502 40.625C122.502 38.8995 123.9 37.5007 125.625 37.5H137.502L138.145 37.5146ZM69.3774 37.5C71.1028 37.5007 72.5024 38.8995 72.5024 40.625C72.5024 42.3505 71.1028 43.7493 69.3774 43.75H57.5024C54.0507 43.75 51.2524 46.5482 51.2524 50V74.375C51.2524 76.1005 49.8528 77.4993 48.1274 77.5C46.4016 77.5 45.0024 76.1009 45.0024 74.375V50L45.0195 49.3555C45.344 42.964 50.4686 37.838 56.8604 37.5146L57.5024 37.5H69.3774Z" fill="#3A4B64"/>
</svg>
