<svg width="180" height="180" viewBox="0 0 180 180" fill="none" xmlns="http://www.w3.org/2000/svg">
<path d="M157.5 92.5C161.642 92.5 165 95.8578 165 100V135L164.99 135.386C164.789 139.349 161.513 142.5 157.5 142.5H142.5C139.693 142.5 137.25 140.955 135.964 138.672L95.5615 152.249V152.251C88.407 154.664 80.5835 154.189 73.7793 150.93L19.0503 124.783L19.043 124.78C14.0888 122.398 13.608 115.579 18.042 112.505L18.4863 112.219L22.4487 109.861H22.4512C27.3149 106.972 33.1838 106.395 38.4814 108.223L39.5312 108.621H39.5337L59.7388 116.958C59.8012 110.82 64.7898 105.869 70.9424 105.869H87.1094C87.6941 105.869 88.2633 105.766 88.8013 105.566L89.3286 105.332L89.3335 105.33L99.4141 100.173C103.664 97.9963 108.368 96.875 113.12 96.875H135.688C136.874 94.2948 139.474 92.5 142.5 92.5H157.5ZM113.12 103.125C109.35 103.125 105.624 104.016 102.263 105.737H102.261L92.1802 110.896V110.894C90.6048 111.702 88.8749 112.119 87.1094 112.119H70.9424C68.2013 112.119 65.9839 114.337 65.9839 117.075C65.9841 118.286 66.4202 119.393 67.1411 120.254C67.2397 120.349 67.3326 120.45 67.417 120.557C68.3155 121.465 69.5614 122.031 70.9424 122.031H95.0977C96.8236 122.031 98.2227 123.43 98.2227 125.156C98.2223 126.882 96.8234 128.281 95.0977 128.281H70.9424C67.9155 128.281 65.1708 127.08 63.1543 125.132L37.1484 114.397L37.1509 114.395C33.4042 112.851 29.1367 113.156 25.6445 115.229V115.232L21.6821 117.59H21.6797C21.1564 117.901 21.1138 118.624 21.5405 119.006L21.7529 119.148L76.4722 145.29L76.4746 145.293C81.4762 147.689 87.1857 148.167 92.5049 146.658L93.5645 146.328H93.5669L135 132.405V103.125H113.12ZM142.5 98.75C141.81 98.75 141.25 99.3096 141.25 100V135C141.25 135.69 141.81 136.25 142.5 136.25H157.5C158.19 136.25 158.75 135.69 158.75 135V100C158.75 99.3096 158.19 98.75 157.5 98.75H142.5ZM69.165 28.8891C75.8682 26.9037 82.9962 27.0569 89.5703 29.2822C91.2031 29.8349 91.909 31.6941 91.2085 33.269C90.5072 34.8441 88.6634 35.5355 87.0191 35.0171C81.8148 33.3765 76.2146 33.3123 70.9375 34.8755C64.6579 36.7356 59.2482 40.7768 55.6812 46.2695C52.1144 51.7621 50.6246 58.3482 51.4795 64.8413C52.3346 71.3342 55.4774 77.3098 60.3442 81.6919C65.2113 86.0741 71.4828 88.576 78.0298 88.7475C84.5765 88.919 90.9699 86.7482 96.0596 82.6269C101.149 78.5053 104.602 72.7018 105.796 66.2622C106.799 60.8506 106.15 55.2875 103.975 50.2832C103.287 48.7021 103.783 46.7971 105.276 45.935C106.769 45.0742 108.691 45.5808 109.412 47.146C112.312 53.4516 113.208 60.5257 111.934 67.3999C110.469 75.301 106.235 82.4208 99.9902 87.478C93.7451 92.5352 85.8994 95.1981 77.8662 94.9878C69.8331 94.7773 62.1388 91.7076 56.167 86.3305C50.1953 80.9535 46.337 73.6214 45.2881 65.6543C44.2395 57.6875 46.068 49.6078 50.4443 42.8686C54.821 36.1291 61.46 31.1715 69.165 28.8891Z" fill="#3A4B64"/>
<path d="M77.4755 46.25H80.5643V48.3736C82.1344 48.5537 83.4858 48.9141 84.6183 49.4546C85.7766 49.9694 86.6518 50.4842 87.2438 50.999L84.5411 54.8214C84.258 54.6155 83.9105 54.4225 83.4986 54.2423C83.0868 54.0364 82.6363 53.8562 82.1473 53.7017C81.6582 53.5473 81.1563 53.4186 80.6415 53.3156C80.1267 53.2127 79.6248 53.1483 79.1357 53.1226C79.007 53.1226 78.8783 53.1226 78.7496 53.1226C77.72 53.1226 76.9221 53.3156 76.3558 53.7017C75.8152 54.0878 75.545 54.5383 75.545 55.0531C75.545 55.4649 75.6737 55.8253 75.9311 56.1342C76.1885 56.4431 76.5102 56.7262 76.8963 56.9836C77.2824 57.2153 77.72 57.434 78.2091 57.64C78.6981 57.8201 79.1872 58.0132 79.6762 58.2191L80.1782 58.4508C81.1563 58.8369 82.1087 59.2745 83.0353 59.7635C83.9877 60.2268 84.8371 60.7931 85.5836 61.4624C86.33 62.1059 86.9221 62.8652 87.3596 63.7403C87.823 64.5898 88.0546 65.5936 88.0546 66.7519C88.0546 67.5756 87.9002 68.3864 87.5913 69.1844C87.3082 69.9823 86.8706 70.703 86.2786 71.3465C85.6865 71.99 84.9143 72.5434 83.962 73.0068C83.0096 73.4443 81.877 73.7275 80.5643 73.8562V76.25H77.4755V73.8176C75.8024 73.6374 74.3094 73.2255 72.9967 72.582C71.7097 71.9385 70.5257 71.1277 69.4446 70.1496L72.1087 66.3658C73.164 67.1895 74.2194 67.8201 75.2747 68.2577C76.3558 68.6696 77.5141 68.8755 78.7496 68.8755C79.2644 68.8755 79.7535 68.8369 80.2168 68.7597C80.7058 68.6567 81.1306 68.5151 81.4909 68.3349C81.877 68.1548 82.1859 67.9231 82.4176 67.64C82.675 67.3568 82.8037 67.0222 82.8037 66.6361C82.8037 66.6104 82.8037 66.5846 82.8037 66.5589C82.8037 66.1213 82.6363 65.7223 82.3017 65.362C81.9671 64.9759 81.5424 64.6412 81.0276 64.3581C80.5385 64.0492 80.0109 63.7918 79.4446 63.5859C78.904 63.3542 78.4536 63.1741 78.0932 63.0454C77.1666 62.685 76.2399 62.2989 75.3133 61.8871C74.3867 61.4495 73.5501 60.9218 72.8037 60.3041C72.0829 59.6863 71.5038 58.9527 71.0662 58.1033C70.6544 57.2539 70.4484 56.2629 70.4484 55.1303C70.4484 55.0788 70.4484 55.0145 70.4484 54.9373C70.4742 54.2423 70.6286 53.5344 70.9118 52.8137C71.1949 52.093 71.6196 51.4366 72.1859 50.8446C72.7779 50.2268 73.5115 49.6992 74.3867 49.2616C75.2618 48.824 76.2914 48.528 77.4755 48.3736V46.25Z" fill="#EE4D2D"/>
</svg>
