<svg xmlns="http://www.w3.org/2000/svg" width="75" height="30" viewBox="0 0 75 30" fill="none">
<path d="M5.4 24.15 L10.5101 0 L16.9677 0 L13.0466 18.8761 L20.3815 18.8761 L19.1977 24.15 L5.4 24.15 Z M20.0813 24.15 L31.9185 0 L40.3049 0 L41.8956 24.15 L35.6018 24.15 L35.5331 19.6159 L28.5998 19.6159 L26.7767 24.15 L20.0813 24.15 Z M31.0043 14.4794 L35.401 14.4794 L35.3005 7.5462 Q35.2636 6.7324 35.2794 5.9397 Q35.3005 5.1418 35.3323 4.4337 L35.2319 4.4337 Q34.9941 5.1788 34.7562 5.908 Q34.5184 6.632 34.1802 7.4088 L31.0043 14.4794 Z M44.4966 24.15 L49.6066 0 L56.0643 0 L53.8976 10.3153 L56.2017 6.9332 L60.8995 0 L68.4775 0 L59.8849 11.1291 L63.9117 24.15 L56.6403 24.15 L54.1724 14.6115 L52.7509 15.5258 L50.9595 24.15 L44.4966 24.15 Z" fill="#0077C8" /><path d="M41.1705 25.8334L37.9128 30L17.0385 30L20.2962 25.8334H41.1705Z" fill="#0077C8" />
<path d="M68.2109 29.3825L68.779 28.7188C68.93 28.8478 69.086 28.9451 69.2469 29.0097C69.4078 29.0742 69.5878 29.1092 69.788 29.1124C69.8591 29.1124 69.9271 29.1048 69.9919 29.0906C70.0567 29.0764 70.1151 29.0545 70.1681 29.025C70.2211 28.9954 70.2644 28.9594 70.298 28.9156C70.3315 28.8719 70.351 28.8205 70.3563 28.7625C70.3661 28.7002 70.3528 28.6445 70.3164 28.5963C70.28 28.5482 70.2336 28.5056 70.1773 28.4684C70.121 28.4312 70.0592 28.3974 69.993 28.3678C69.9267 28.3383 69.8658 28.3132 69.8104 28.2924C69.6723 28.2377 69.5321 28.1765 69.3888 28.1076C69.2455 28.0387 69.12 27.9523 69.0134 27.8485C68.9068 27.7446 68.8268 27.6178 68.7723 27.4701C68.7179 27.3225 68.7143 27.1399 68.7617 26.9224C68.7901 26.7977 68.8414 26.6709 68.9146 26.544C68.989 26.4172 69.0916 26.3002 69.2236 26.1941C69.3545 26.0881 69.5135 26.0017 69.6996 25.9339C69.8856 25.8672 70.0996 25.8333 70.3414 25.8333C70.4957 25.8333 70.64 25.8475 70.773 25.8771C70.906 25.9066 71.0247 25.9448 71.13 25.993C71.2354 26.0411 71.3286 26.0925 71.4098 26.146C71.491 26.2007 71.5547 26.2521 71.6009 26.3024L71.0353 26.953C70.9456 26.8863 70.8295 26.825 70.686 26.7682C70.5424 26.7113 70.3941 26.6796 70.2411 26.6709C70.0553 26.6577 69.9169 26.6851 69.825 26.7518C69.733 26.8185 69.6794 26.8852 69.6652 26.9519C69.6554 27.0142 69.6632 27.0689 69.6898 27.1148C69.7164 27.1607 69.7551 27.2012 69.8082 27.2373C69.8612 27.2733 69.923 27.3061 69.9925 27.3378C70.0631 27.3696 70.1327 27.4013 70.2032 27.4352L70.2793 27.4669C70.427 27.5336 70.5714 27.6068 70.7112 27.6855C70.8511 27.7643 70.9732 27.8572 71.0776 27.9644C71.182 28.0704 71.2587 28.1951 71.3067 28.3361C71.3558 28.4783 71.3629 28.6423 71.3291 28.8303C71.3027 28.9725 71.249 29.1124 71.1689 29.2524C71.0889 29.3923 70.9796 29.517 70.8443 29.6274C70.7078 29.7379 70.5455 29.8275 70.3572 29.8964C70.1689 29.9653 69.9517 29.9992 69.7054 29.9992C69.3541 30.0036 69.0596 29.9456 68.8219 29.8275C68.5842 29.7083 68.3809 29.5596 68.2132 29.3803L68.2109 29.3825Z" fill="#0077C8" />
<path d="M53.2184 25.8333H50.3737L49.7278 29.9994H52.5725L52.7091 29.1209H50.7996L50.9075 28.4245H52.7789L52.9131 27.5585L51.0306 27.5517L51.1561 26.738H53.0779L53.2184 25.8333Z" fill="#0077C8" />
<path d="M54.6986 27.8777L53.6697 25.8333H54.849L55.4282 26.9721L56.3677 25.8333H57.528L55.8737 27.864L56.9526 29.9994H55.7677L55.1441 28.7696L54.1393 29.9994H52.9667L54.6986 27.8777Z" fill="#0077C8" />
<path fill-rule="evenodd" clip-rule="evenodd" d="M58.0689 25.8333H59.5238C59.6134 25.8333 59.7029 25.8356 59.7924 25.8402C60.0006 25.8493 60.1893 25.8868 60.3584 25.9539C60.5275 26.021 60.667 26.1188 60.778 26.2473C60.8878 26.3758 60.967 26.5328 61.0121 26.7193C61.0582 26.9058 61.0614 27.1231 61.0237 27.3699C60.9848 27.6167 60.914 27.8339 60.8102 28.0204C60.7063 28.207 60.5794 28.3628 60.4294 28.489C60.2795 28.6153 60.1099 28.712 59.9195 28.7791C59.7302 28.8462 59.5291 28.8837 59.3184 28.8928C59.2321 28.8973 59.1436 28.8996 59.0518 28.8996H58.5108L58.3403 29.9994H57.4241L58.0689 25.8333ZM58.6514 27.9875H59.161C59.2147 27.9875 59.2651 27.9875 59.3122 27.984C59.3593 27.9806 59.3985 27.9806 59.4277 27.9806C59.6003 27.9715 59.7512 27.9215 59.8804 27.8282C60.0108 27.735 60.0917 27.5826 60.1243 27.3699C60.1569 27.1617 60.1225 27.0082 60.0222 26.9104C59.9219 26.8126 59.7873 26.7603 59.6172 26.7512C59.5579 26.7466 59.4695 26.7432 59.353 26.7409C59.2355 26.7387 59.1414 26.7375 59.0686 26.7375H58.8446L58.6514 27.9863L58.6514 27.9875Z" fill="#0077C8" />
<path fill-rule="evenodd" clip-rule="evenodd" d="M62.016 29.9994H61.0987L61.7446 25.8333H63.1995C63.2891 25.8333 63.3786 25.8356 63.4681 25.8402C63.6763 25.8493 63.865 25.8868 64.0341 25.9539C64.2032 26.021 64.3427 26.1189 64.4537 26.2474C64.5635 26.376 64.6427 26.533 64.6878 26.7196C64.7339 26.9061 64.7371 27.1234 64.6993 27.3703C64.6454 27.7218 64.5286 28.0108 64.3501 28.2361C64.1717 28.4613 63.9549 28.6308 63.6977 28.7435L64.3937 29.9994H63.3364L62.7376 28.8993H62.1865L62.016 29.9994ZM62.3271 27.9881H62.8367C62.8904 27.9881 62.9408 27.9881 62.9879 27.9846C63.035 27.9812 63.0742 27.9812 63.1033 27.9812C63.276 27.9721 63.4269 27.9221 63.5561 27.8288C63.6864 27.7355 63.7674 27.583 63.8 27.3703C63.8326 27.1621 63.7982 27.0085 63.6979 26.9107C63.5976 26.8129 63.463 26.7605 63.2929 26.7514C63.2336 26.7469 63.1452 26.7435 63.0287 26.7412C62.9112 26.7389 62.8171 26.7378 62.7443 26.7378H62.5203L62.3271 27.9869L62.3271 27.9881Z" fill="#0077C8" />
<path d="M65.4763 25.8333H68.321L68.1806 26.738H66.2576L66.1321 27.5517L68.0147 27.5585L67.8805 28.4245H66.009L65.9011 29.1209H67.8107L67.674 29.9994H64.8293L65.4763 25.8333Z" fill="#0077C8" />
<path d="M72.178 28.7188L71.61 29.3825L71.6122 29.3803C71.78 29.5596 71.9832 29.7083 72.2209 29.8275C72.4586 29.9456 72.7531 30.0036 73.1045 29.9992C73.3507 29.9992 73.568 29.9653 73.7562 29.8964C73.9445 29.8275 74.1069 29.7379 74.2433 29.6274C74.3787 29.517 74.488 29.3923 74.568 29.2524C74.648 29.1124 74.7018 28.9725 74.7282 28.8303C74.762 28.6423 74.7549 28.4783 74.7058 28.3361C74.6578 28.1951 74.5811 28.0704 74.4767 27.9644C74.3723 27.8572 74.2502 27.7643 74.1103 27.6855C73.9704 27.6068 73.8261 27.5336 73.6784 27.4669L73.6023 27.4352C73.5317 27.4013 73.4622 27.3696 73.3916 27.3378C73.3221 27.3061 73.2603 27.2733 73.2072 27.2373C73.1542 27.2012 73.1155 27.1607 73.0889 27.1148C73.0623 27.0689 73.0545 27.0142 73.0642 26.9519C73.0785 26.8852 73.1321 26.8185 73.2241 26.7518C73.316 26.6851 73.4543 26.6577 73.6402 26.6709C73.7932 26.6796 73.9415 26.7113 74.085 26.7682C74.2285 26.825 74.3446 26.8863 74.4343 26.953L75 26.3024C74.9538 26.2521 74.89 26.2007 74.8089 26.146C74.7277 26.0925 74.6344 26.0411 74.5291 25.993C74.4237 25.9448 74.3051 25.9066 74.1721 25.8771C74.039 25.8475 73.8948 25.8333 73.7405 25.8333C73.4986 25.8333 73.2847 25.8672 73.0986 25.9339C72.9126 26.0017 72.7535 26.0881 72.6227 26.1941C72.4907 26.3002 72.388 26.4172 72.3137 26.544C72.2405 26.6709 72.1891 26.7977 72.1608 26.9224C72.1134 27.1399 72.1169 27.3225 72.1714 27.4701C72.2259 27.6178 72.3058 27.7446 72.4124 27.8485C72.5191 27.9523 72.6446 28.0387 72.7879 28.1076C72.9312 28.1765 73.0714 28.2377 73.2094 28.2924C73.2649 28.3132 73.3258 28.3383 73.392 28.3678C73.4583 28.3974 73.5201 28.4312 73.5764 28.4684C73.6327 28.5056 73.679 28.5482 73.7154 28.5963C73.7519 28.6445 73.7652 28.7002 73.7554 28.7625C73.75 28.8205 73.7306 28.8719 73.697 28.9156C73.6635 28.9594 73.6202 28.9954 73.5672 29.025C73.5141 29.0545 73.4558 29.0764 73.391 29.0906C73.3262 29.1048 73.2582 29.1124 73.1871 29.1124C72.9869 29.1092 72.8069 29.0742 72.646 29.0097C72.4851 28.9451 72.3291 28.8478 72.178 28.7188Z" fill="#0077C8" />
<path d="M3.33578 25.8334H8.7915L5.53379 30H0L3.33578 25.8334Z" fill="#0077C8" />
<path d="M6.91737 30L10.1751 25.8334H18.9126L15.6549 30H6.91737Z" fill="#0077C8" />
</svg>